<svg width="20" height="20" viewBox="0 0 20 20" xmlns="http://www.w3.org/2000/svg" style="externalResourcesRequired='true'">
<path d="M9.81534 1.44399C9.88365 1.27973 10.1163 1.27973 10.1847 1.44399L12.5981 7.24663C12.6269 7.31588 12.692 7.36319 12.7668 7.36919L19.0312 7.8714C19.2086 7.88562 19.2805 8.10692 19.1454 8.22266L14.3725 12.3111C14.3156 12.3599 14.2907 12.4365 14.3081 12.5094L15.7663 18.6224C15.8076 18.7955 15.6193 18.9323 15.4675 18.8395L10.1043 15.5637C10.0402 15.5246 9.95975 15.5246 9.89575 15.5637L4.53251 18.8395C4.38069 18.9323 4.19244 18.7955 4.23372 18.6224L5.6919 12.5094C5.7093 12.4365 5.68443 12.3599 5.62747 12.3111L0.854627 8.22266C0.719519 8.10692 0.791424 7.88562 0.968755 7.8714L7.2332 7.36919C7.30796 7.36319 7.37308 7.31588 7.40188 7.24663L9.81534 1.44399Z" stroke="#DDE11D"/>
</svg>
